<mxfile host="Electron" modified="2024-05-02T08:34:35.254Z" agent="Mozilla/5.0 (Windows NT 10.0; Win64; x64) AppleWebKit/537.36 (KHTML, like Gecko) draw.io/24.2.5 Chrome/120.0.6099.109 Electron/28.1.0 Safari/537.36" etag="YvrgAdOFRNxL20FtQIly" version="24.2.5" type="device">
  <diagram name="Pagina-1" id="Z5OynHbFs00OP2rZSlkZ">
    <mxGraphModel dx="1434" dy="844" grid="1" gridSize="10" guides="1" tooltips="1" connect="1" arrows="1" fold="1" page="1" pageScale="1" pageWidth="827" pageHeight="1169" math="0" shadow="0">
      <root>
        <mxCell id="0" />
        <mxCell id="1" parent="0" />
        <mxCell id="PhmaQYEjILuzU4zKonOK-3" value="" style="shape=image;verticalLabelPosition=bottom;labelBackgroundColor=default;verticalAlign=top;aspect=fixed;imageAspect=0;image=data:image/png,iVBORw0KGgoAAAANSUhEUgAAA3MAAAIDCAYAAACuHEcPAAAAAXNSR0IArs4c6QAAAARnQU1BAACxjwv8YQUAAAAJcEhZcwAADsMAAA7DAcdvqGQAAEB8SURBVHhe7d0PcJ7VfSf6n/7/sy1b8j9hY2ywAYMdYqCYEEIgiTeEtgnTLONtpjB7Z3PTZPdetkNnms22s9neaZtL7y2T7p29ZFN2ey/NtM3NtgPJhNAlCYQSGjsEB2wwYION/1u2bMuy/lh/7/u8eiS9lmRbtiVZj/T5MI91znlfvXqfIz1ovjrnOafo4Qc39gUAAACZUpx+BAAAIEOEOQAAgAwS5gAAADJImAMAAMggYQ4AACCDhDkAAIAMEuYAAAAySJgDAADIIGEOAAAgg4Q5AACADBLmAAAAMkiYAwAAyCBhDgAAIIOEOQAAgAwS5gAAADJImAMAAMggYQ4AACCDhDkAAIAMEuYAAAAySJgDAADIIGEOAAAgg4Q5AACADBLmAAAAMkiYAwAAyCBhDgAAIIOKHn5wY19aBoApobSsLCqra6KisirKyyvy9ZLS0igqKso/3tfXFz3d3dHd1RWdnafjdEd7dLS15usAMFMIcwBcVpVV1VFbVx9z5tbFrNq5MWvOnCivqEwfvTCdpzvi1MmTcar5RJw8cSyajzVFR3tb+igATC/CHACTrm7Bopi/qCHqFi6Kmtlz0taJ0dpyMo41Ho6jhw/GsSOH01YAyD5hDoBJUTuvLhYtXRaLllx50SNvlyoZuTu8f28c3rcnmo8fS1sBIJuEOQAmVMOVy2PJ8hVRWzc/bZkamo8djf27d8XBvbvTFgDIFmEOgAmx9OqVsezqVVFVMyttmZraW0/Fnvd2xL73dqYtAJANwhwA4yoZiVt+7eqonjW1Q9xwbadOxe53thupAyAzhDkAxkVyT9zVq9dG3YKFaUs2HTvSGO9t3+qeOgCmPJuGA3DJrlm9Jm696+OZD3KJ5BySc0nOCQCmMmEOgIs2e+68XPD5WH5a5XSTnFNybsk5AsBUJMwBcFGuuGpF3PbRT0TtvPq0ZfpJzi05x+RcAWCqEeYAuGCrbrwpVn/w1rQ2/SXnmpwzAEwlwhwAF2Ttr9wey1Zem9ZmjuSck3MHgKlCmANgTEpKS2PdHR+NhVdcmbbMPMm5J32Q9AUAXG7CHADnVVpWFus+9JFpsVrlpUr6IOmLpE8A4HIS5gA4p+Likrhp/Yejtm5+2kLSF0mfJH0DAJeLMAfAOa297UMxt35BWmNA0idJ3wDA5SLMAXBWySqO8xc1pDWGS/pmJq3qCcDUIswBMKpk02z7q51f0kfTcdN0AKY+YQ6AEeYvviKuWb0mrXE+SV8lfQYAk6no4Qc39qVlAIjyioq47e4NUVFZlbZMvL6+vuju7s4fPb290Zs7enr6P/b1JUfuObn/8oVEUVHk/ytKisVRXFwcJSXpx9xRWlqaP4qSJ0yS0x3tsfmF56Lz9Om0BQAmljAHwBnW3Hp7LFoyMXvJ9fT0xOnOzjidCzzJx87Orujq7orurlyQ6ykIc7kgNxDqBsNcPsgN/MpKgtywMJc7inOBbjDMleSOstIoKy2L8vKyqCgvj4pcUE0+lpRMzCqUh/fvjW2v/CytAcDEEuYAGNRw5fK44eZfSWvjo7W1NZpbWnIBrjM6khA3cCRhrisX5nJHEvImQhLayspyYS53DIa53FFVWRk1NdUxu6YmKnPl8fTmqz+Pg3t3pzUAmDjCHAB5JaWlcccnPhXlFeMTbppPtsShw4ej6dixaO/oiO5cYEuC21RQngt2NdW5MDerJmrnzIn5dfX5cDceOk93xMs//EH0dHenLQAwMUrW37TmP6ZlAGawVTd8IOoWLEprlyYJcNvefCt27toVR442RW9fX35K5FSRjAR25AJmEjibm0/mw2Z1VVVUVlSkz7h4SSguKSmNpsZDaQsATAyrWQIQs+bUxpXXrEprl+693e/H7j178tMpE1MpyA2XTPfcf/Bg/hgvSV8mfQoAE0mYAyCuWnV9Whofp061pqV+vb1Tf0Z/W1t7Whof492nADCcMAcww82eOy8WL12W1sZHWXlZWurXvxLl1JasgDmekj5N+hYAJoowBzDDXbliZVoaP8nKkYWS7QWmumTVy/E2EX0LAAOEOYAZrLKqOhqWLU9r42dkmJv6I3MTEeaSvk36GAAmgjAHMINNRJBLJEv/F8pCmEv2opsIE9XHACDMAcxgDVdelZbG1/BRrpk6MpeYqD4GAGEOYIZK9pSrqpmV1sZXxbD92rKwmuVEjcwlfTxe+/cBQCFhDmCGWnjFkrQ0/rJ5z9z4rmZZaCL7GoCZS5gDmKHmL74iLY0/98ydaSL7GoCZS5gDmIFq59VFRWVVWht/FRncZ26i7plLJH2d9DkAjCdhDmAGmjfB93AlwaioqCit9ZvKgS55r+O9afhwE93nAMw8whzADDS3fn5amhglJSUjwtFUDnPJex0ePsfbRPc5ADOPMAcwA9XOq09LE6d82FTL3t7etDT1lE3wqFxiMvocgJlFmAOYYapnzY7SCbw/bECWVrScyPvlBiR9nvQ9AIwXYQ5ghpk1pzYtTazysuyEuYlcybLQZPU9ADODMAcww9RM0uhQlrYnmIyRucRk9T0AM4MwBzDDVNXMSksTq6JCmBtusvoegJlBmAOYYSqqqtPSxDIyN9Jk9T0AM4MwBzDDVFRWpqWJVVFRkZb69fYKc5PV9wDMDMIcwAxTNmzEbKIMX1RkSi+AMglbEyQmq+8BmBmEOYAZpmSSgkvFsH3mTLOcvL4HYGYQ5gBmmOLikrQ0sYaPQk3tMDc5IWuy+h6AmUGYA5hhioqK0tLEGrlpeG9amnoma2RusvoegJlBmAOYYSZrhGx4mLMAytQenQQge4Q5gBmmt7cnLU2s4VsTJKZqmCmbpHvZJqvvAZgZhDmAGaanuzstTazSXEAqLj7z18xUDHPJeywpmZx72Sar7wGYGYQ5gBmmq7MzLU2s5P6wLGwcnix+Mln3sk1W3wMwMwhzADPM6Y6OtDTxbpzfGrXlp9Pa1Atzs8o649r6yeuPyex7AKY/YQ5ghjnd3paWJt5Hlx6LX1u2O+65Yl/cMLcp5le2RWnR5VvVMvna9ZXtsWruifhww8G496q98aElJ9JHJ95k9j0A01/Rww9utLQWwAyy4trVcfXqNWltYt149D/HvI5t0dpdGofbquNk6cJo6ZsTJ7vK41RnaZzqKov23GMd3SXR3lManT3F0dWb/J3xYqc99kVZcW9UlPREZXKU9kRVaXfMKuvKHd0xu7wz5lWcjrrK07Gwqj1mlXfHkZLr4vXy30w/f2K9t31b7Hpne1oDgEsjzAHMMAuvWBprf+VDaW1iXXfsL2NB2+a0FlFSMztKKqqjLRfgTnWVRmsuzCXlJMx1pGGuP9CVRHdfUfT0FuU+FkcyO7MvVx/4hZVEvaKivijOFUqKeqOkuC9Kc/Wy4p4oL+nNHf1hrioNczVpmKvOlYffHneg5IOxvfz+tDaxtv78n6LxwL60BgCXRpgDmGGqZ82OD3383rQ2sa458f9Fw6nn01oueFXNitLqmrQ2uiS4JaNz3bkg15MEulyYS7aoO1eYK82FuZJ8mOsdEdbOZ0/J7bGjfHL6459+9Gy0nWpJawBwadwzBzDDJGGiu6srrU2s7uLqtNSvr+/898slYSwZXasu64nZ5d0xt6Iz6io7o77qdMxPj6SctCWPJc9JRuCSz7mYRSm7iqrS0sRK+lyQA2A8CXMAM1Dz8aa0NLG6hoW5/LDbFNM9SWFusvocgJlDmAOYgU40HU1LE2v4yFz0Xr6VLM+mKyYnzE1WnwMwcwhzADPQ8SOH09LE6OnpiZMtLdHYfOZ0zqm4aXhTS3e0trXl3vPEBs2J7nMAZh5hDmAGaj5+LE53tKe18dHW1h6HDjfGjnffjde2vRGv547N7zTFyc6y9Bk5Y7hnbjI1ny6L13efiHdy7zl533v27YumY8ei4/TQRufjIenrpM8BYDyVrL9pzX9MywDMINWzZsWcuXVp7eIkI3BHm5pi7/4DsXvP3nwYSo4DBw/FiebmONHaFZ29xfnVJmtKu6K0pC9Kq869muVkaO8qiXeb58TPDi2KbY2VcbKlNY7n3m/zyZPR0nIqWk6divZcAEtGEivKy6PoYlZWKXB43544evhgWgOA8WFrAoAZqm7Bolh3x11p7cIkIafxyNE4dPhwNB49GseOn4jOzs700TMlWwdcPaclrqltjSVzOmJhXUXUV3bEnPKu/AqUkyHZuy4ZIWzqqIxjHRVxqK069pycFXtaZkfvWTYoLy8ri9o5c2Le3LmxYH59zK2tvehQt+XlF+OYaZYAjDNhDmAGu+MTn4qqmllpbWy6e3rivV274/09e+NILsj1nGNRk+Li4igtLYmSkv6jvqor6qu7oy4f5jpjdll3zMp9rC5NNvnujsrcx4qSnvx+cQNHcXFf/p6A4Tkquf0u+cq9vUX5fekGjtM9JYObkLflPp7qLI+WrtJcmCvPBbnKXKCryJdzr5h/nfNJzqF+3rxoWLwollxxRZTk6heivfVUvPzDH6Q1ABg/whzADLbiuhvi6utvTGtj8+57u+KXW7dFW/vZ77lLRrDKyspyR2k+xCWBaOSoVl+U58La7FyYS/aJS8Jc8nEgzJWW5MJcUW8uPCVhri8f5oqL+n9l9SYbiOfDXFEuTObCXF9xLmQOhbn2NMwlH1tywS2Z6jnW8HY2VZWVcd2qlbE0F+guxHtvvRG73n4zrQHA+BHmAGawyqrq+PA/+9W0Njbf+8E/5O+HO5skuFVUVER5eVm+PD5yYS73b1Ea5vqSMJcvXVpAu1BzZs+Ou+74UFobm5/+j+9HR3tbWgOA8WM1S4AZLAkZB/fsTmtj09l15nYDw1VWVuTCXPk4BrlEEt6KorevOH+k0a7/oUnU1d2dlsYm6VtBDoCJIswBzHB7d+1MS2Nz7cpr8vfBjSYJcOXjsPrjVJSc81VXLk1rY3OhfQsAF0KYA5jhWk4cj0P79qS181t1zdWx+rprY/bsC1s4Jctqamri6uXLY9mSJWnL+SV9mvQtAEwU+8wBkF9xcemKa9LauZWWlkZ9XV1UV1XlFzlJ9pobmHqZbFmQjMoli55kfXQuef+zciFu0cKFcWUuxCVHcr5j9cYvNkXnOG8+DgCFhDkA8qGjrKw8auvq05ZzS8Jasv/avHlzY/asWfnQU1ZalgtzvXE6DTBJGBrf++YmXvKek5CanNviRQtjSUNDfvXKutx5Xsi57H13Rxzc+35aA4CJYTVLAPJKSkvz+86VV1SmLWPX1dUVJ5pPxsmWk9HScipa29ridGdnvj1ZNGRgxG6qSQJaZUVFVFZW5rceqK6uiprq6nw4TY5kFPJCdZ7uyO8r13OBi6UAwIUS5gAY1HDl8rjh5l9JaxcnmXaZhLnW1rbo6OjIh7nOriTY5T7mAl4yJbO7uz/kJW1J0JtISYhM9rsrywWz0tKyKC/LHeXl+a0Tki0UCsNcclzqaOKbr/48Du69sBVCAeBiCHMAnGHNrbfHoiVXprXxkQS4ZJRuMMylI3bJ0dPdE925AJiEwJ7enujt6Y3e3tzR1xt9vX25j31p4Es+9r9e/yBfUf9UztxRVJx8LM4HseKS4igpLslPBS3NHSWlJfkglw9zSZAbCHO5jxdyD9xYHN6/N7a98rO0BgATS5gD4AzlFRVx290boqKyKm2ZWElwGwxzuSMf5NIjCXG9uUCX/JckuYFfWP1ZLhficv8V54LcwP15A0cS5AbC3KWOtI3V6Y722PzCcxY9AWDSCHMAjDB/8RVx0/oPpzXG4rVNP42jhw6kNQCYePaZA2CEJJS8u31bWuN8kr4S5ACYbMIcAKPa/c72OPD+rrTG2SR9lPQVAEw2YQ6As9r+y1fi6OGDaY3hkr5J+ggALgdhDoBz2rr5n+JE05G0xoCkT5K+AYDLRZgD4Jx6e3vyi3s0HzuatpD0RdInSd8AwOUizAFwXsm+cFv+6R/j2JHGtGXmSvog6YukTwDgchLmABiTnu7u2PLyT6LxwN60ZeZJzj3pg6QvAOByE+YAuCBbf/6z2LPznbQ2cyTnnJw7AEwVwhwAF2zHG6/NqFUck3NNzhkAphJhDoCLkuyvtvknP4zm401py/STnFtyjvbbA2AqEuYAuGgtJ47HKy/+eFpump2cU3JuyTkCwFQkzAFwyd7dvi0XfH40LVa7TM4hOZfknABgKit6+MGNfWkZAC5Zw5XLY/m1q6N61qy0JRvaTp3Kj8Yd3Ls7bQGAqU2YA2BCLL16ZSy7elVU1UztUNfeeir2vLcj9r23M20BgGwQ5gCYUMlI3ZLlK6K2bn7aMjU0Hzsa+3fvMhIHQGYJcwBMitp5dbFo6bJYtOTKKK+oTFsnV+fpjji8f28c3rcnmo8fS1sBIJuEOQAmXd2CRTF/UUPULVwUNbPnpK0To7XlZBxrPBxHDx+MY0cOp60AkH3CHACXVWVVddTW1cecuXUxq3ZuzJoz56JH7pKRt1MnT8ap5hNx8sSxaD7WFB3tbemjADC9CHMATDmlZWVRWV0TFZVVUV5eka+XlJZGUVFR/vG+vr7o6e6O7q6u6Ow8Hac72qOjrTVfB4CZQpgDAADIIJuGAwAAZJAwBwAAkEHCHAAAQAYJcwAAABkkzAEAAGSQMAcAAJBBwhwAAEAGCXMAAAAZJMwBAABkkDAHAACQQUUPP7ixLy0DMIOs/hePxGc/dn3UVeYqPW1x+GdPx1/8l+fjWP/D42R+3Pnb/2t86vaGqCrJVTuOxo4f/008/rdb+x+eKtY9EF968O5YNb8sX23ftzl+8OdPxEuH81UAmJKEOYCM2PjoN2N9Q1q5SO3bvxO//7XnItZ8Pv7g926LurS9X1fs/rt/E//p6bSauPeR+OPPXR9VaXVM2t6K737xsXghKX/m38WffvbqKM0/MOBovPqn/z6+tS2tXnbXx2/9H4/EzYvSaqr7nafi9/7ombQGAFOPaZYAM9HSOaMEtLKoX3VnWh4nC6qGBbnE/FhyS1qcEq6M2bPTYoHSRdfE+rQMAFORMAcwE+07Ge1pcUhXNO14KS2PkyPt0Z0WhxyN/b9Ii1PC3mhpSYsFug+/G5vSMgBMRcIcwEzRczS2P/tcf3nbE/GXf7c1jnX0V/P3zP30v8e3CqdYjoenn4i//dGeaO9J68k9c8/8zRSaYpl4K771fz8V2492pfX+e+a++xemWAIwtblnDiAjlqy7LRZVp5VzqLvt/rhv3fy0NqArDr/4jXj0iQtceGTUe+aOxuv/5al4Pa2N0HUydm9+a5wXUgEAhhPmAKaTdQ/Fl/+XO2NR/6KMg7oPvhR/+eUnY3taH7NRw9zB2PTQV+PbaQ0AuDxMswSYNtbGv3xwZJCLroPxi7+6iCAHAExpRuYApoX5cfdX/iA+vXr4PMyu2P30V+M//d3RtD7gofjyk7ngl9b6jTLidqkjc6N9fuHWBaNYctf9seGudbFi6fyYXV2QTHu6orutOfa9szk2ffep2LQrbR/m7q98fUQ/9G/J8Hbc+dv/Kj51W0NU5V926DxG2/bh8ItfiEefSCs5Z3/d56LuQw/EZ+//cKxaWB2lyX56Od1tJ+Pwlu/H3/6X52N/f9NZzI9V990Xn1h/fSxtqI2qyoJz7uqK9pajse/1l+KH338udtj3DoACRuYApoG6+x6KDSOCXBI2nopvjQhyU9Sie+K3/uTr8bufvy8+cG3DmUEuUVIWpbPnx/Jb7ouN/+Hr8eXfvmfYPnnndvdXHonf+PBAkBs/qx/8g/jdL22I1Q1DQS5RWj0nlnz4N+Pf/slDsTptGyHZrPyxP4wv/Ys7Y9WK+WcGuURZWVTVNcSqu3PP+5M/yT1vbfoAAAhzANm36P74rftH2di75a147r89l42FSBZtiC/9h9+Mm5eOYYWXREl1LEqC0u9tGFugq7sn7hsl7F6yujvjtzYsG9n3BUqXro/7Pjd8QZqc/P2NG2LV/DGmy7JkBO+L8eXPC3QA9BPmADJtbWx8ZEMsr0yrg9pix/efjBcmZFpeQ6x/8pvx2KjH1+NL96ZPG7PrY+O/vT9WjbJxd35qZUf/MZrZa3JB9rOjBKVhqhbNH2Xz8ktXtaihP8gNvM+BLRjOUBZLbrpvWOjMhdfPj3J/Y2LgtUY95bJYdNdvxr9cl1YBmNGEOYAMW/35fx63NIxMBO3bvh+PP5OR6ZWfuT9uWTr8HLqi5fVn4vF/92/i977Qf/zR156J7ceGJ5yyWP6Rfx43p7Vz6joZO557Mv7soS/EIw/9UfzFd16I3elDl6J953PxrYH3+e+eiFcPjpLCFi6LO9NiYtWX7hklvLbF/hdy7+9/Sl/rX30h/uyJl2J/W/rwoPlxw/0PpGUAZjJhDiCr1n0xPntXw8gRp6Ovxrf+NN0cPAM+ddOVI89hz0vx5//nU2cs+HFs+1PxF09sGTlttG5l3PLhtHxWbbHj7/73ePyvcuEoX98T27/3fGzKly9Bx3vx/P/2nXh14H0e3hzf+v5b0ZJWB5WUFUzFvD4+vGrkaGLL6/89/uy/Dby/fvtfzIW7H7wX3Wl9QOmy6+LTaRmAmUuYA8ikZJrezSPvF+s5Gq/+1TcytA3BbbF0wchRud1b/mb0e/22PRW7R0wdnRN116XFszn6VvxwAkYq23f9In6Ylge9eChOjjrdcsDaqJ+XFgcdjV3PvpSWh3n6F7Fr+OhcyfxYsiEtAzBjCXMAmZNsQ/Cro0zT64rDP/2b+NaWtDphkiX9k6mKox2/E48/mz5tTGqjdMQs0eY4+XZaHOFo7Ds2Yt7heX+btR95N3ak5Yl3ItpOp8VRVZ2x6mVex8k4vC0tj7AlWkYM9eUMfw0AZhxhDiBj6j77+VFXZuw+uCm++8TWtDZ9VZWNtmrIdDZ/ZPgDgBxhDiBL1jwU//N9V4+8x6xrT7z02JMZml45oHmUVRtrY85Zp01eH4vmjpyW2X48LWZC+8hVLyvnxKI1aXmE62POrLQ4qC3a96VFAGYsYQ4gM9bGxgfXj7KcfVfsfuYb8d0J2YZgom2OfUdGrlC59Mb7R98/bt3dsXTE2iFH4/BZbjebmrZG04jwOT+W3j36/nF1n70+lg7feqLtaOw+67RMAGYKYQ4gI1b/9m/G+tG2Idj+VHzr7zKyDcEofvDa3pGrNa7cEP/6394TS9J6ou5DD8TDoy36cvDdodUkM+Gt+OmOkd+vutv+VTz8udvOOL8lG74Y/3qUkdj297fGC2kZgJlLmAPIgnsfid/68OibY1etfiD+YNQNvEc5Hn0o/awp5Onvx5sjsk1Z1N3ym/G7f/mf40+/2X/8wZc2xPJR9mbb8fyTk7i4yfjY8febY3dHWhlUHcvv/Xz8wcA5/9dvxu8+mAuvI2aVHozXv5edrScAmDjCHEAG3L1uWcE+ZdPN1vh//uqlODzKXtvJ/myllf3HSF1x+MX/eoGrZ04Rh5+Kbz31VrSMtoXBwDmPdsr5/fL+r/i2KZYA5AhzAFx+W56MR//oqdh+dLREN4quo7HjmW/EoxlevfPYM4/Fn3/z+dg/yk4Lo2o7GK/+v38Uj0/AfnkAZJMwB8DUsOuZ+ItHvhqP/+1LsWPX0WjvGBbsurqi/djB2PHCd+Lxf//vc8/L/jYMx/7pb+LPvvhH8e3vvRq7D56M9uFZNjnno+/F6997Mve8r8a3fiTIATCk6OEHN/alZQAAADLCyBwAAEAGCXMAAAAZJMwBAABkkDAHAACQQcIcAABABglzAAAAGSTMAQAAZJAwBwAAkEHCHAAAQAYJcwAAABkkzAEAAGSQMAcAAJBBwhwAAEAGCXMAAAAZJMwBAABkkDAHAACQQcIcAABABglzAAAAGSTMAQAAZJAwBwAAkEHCHAAAQAYJcwAAABkkzAEAAGSQMAcAAJBBwhwAAEAGCXMAAAAZJMwBAABkkDAHAACQQcIcAABABglzAAAAGSTMAQAAZJAwBwAAkEHCHAAAQAYJcwAAABkkzAEAAGSQMAcAAJBBwhwAAEAGCXMAAAAZJMwBAABkkDAHAACQQcIcAABABglzAAAAGSTMAQAAZJAwBwAAkEHCHAAAQAYVPfzgxr60DMB0du8j8cefuz6q8pWDsemhr8a38+V+d3/l6/Hp1dW50sjHppTP/2E8dldDrtAWO/76d+LxZ/ubE5k5BwAYB0bmAGakhlj/6ENpefrb+Og347Envxl//JUNacs4S4Jy7vUfe/IPY2PaBAATTZgDmKka7owvfz4tT2sPxfJkIG8C3b1uWTriCQCTxzRLgJmiYJple1tbVFVXR7S9Fd/94mPxQq7trFMUB6c1Djn84hfi0SfSSi4sffnJO2NRrtS+/TvxXPxq+jo5B1+KR778ZH5kbP3AS6RtQ4Y+v9/I6ZNnuJBplqO898Tg+z9j6mmi8NzPcV6D/bYhvvSNB2JV2jyooF/POPec5LV+/2vPpTUAuHhG5gBmoJOvfD92tOUK1dfHhnNMPcxPTxwlDC266yxTFq8qCDyJhjvjj7/x9TPCzBkjgvnpiYVBLlEdqz739fjSvWl1oiRB74wgl2iI9aNNlRx+Xufpt35J0DszyCWqVj8wcdM9AZhRhDmAGem5ePypt6I9V6pa/aujB6dc0PpAGkSS0aRHHvpC/th0sL+tavWdI0JPVeyJ7ybP++v+1863VTfHpmFtcxb0h5mN96RhKhnJOuP1q2PpunEIPE98NfeaL8XhtDpwHo8+kQtat6Ynl4wU5r/2d/oDbi7QLR82/XTwHApeq+qqtXF30o9f/EJ8d3v+E3OSkb3c85JRuc/fmY7YJSOI/ef2yIv9ndf/uQBwaYQ5gJnq2cfi9TQ4rbr/kWGjYzlLa9NRq7bYt2VoWuC3d6RpLmqjblgIbH9/a35qYTx7NE7mW5IA9VL/tMWCtn4boq42LVZfH5/OLyAyNJJVNXfYkNa4aog5AwNtDXfmv+5jTw5NlxwImwMGzyGejN0Dp38edy8YPLlY9bn+cxsc5ayuHdnfAHCBhDmAGezbX05HmnJhan3hNMKcoTAyUQoC1Whq548+erWvOR3hq445S/OFQYvmpi/Y1jw4gjaqe+fHnLQ4mvEIkoPvZVQjgzAAXChhDmBGezIeTaf+DffClj2DoalwyuPGVQNBpzmOnW2RkjE5GCcHZicWTLMcPNIFREYoGOFbdOsjQ4GvcFrowAjh2RSOEg5Osyw4zlig5eIcPjF4ckPTLAePcyzwAgBjJMwBzHRPfHXwPrgzDE7DjPyiHf1TEYemQQ5NPbxYz8Xjr6RfoGCaZf9xrv3anoxNA/eoFX5ewYbor5+xWuRQaBw4jy9/vuA1BqdZpsc3CgLiGL1wpDktJQuo9L9GfO3VdHSwYJplesyMLSEAmGjCHABD0y2H+faXCxf3GNA/0jQuy+snC5QULIwyVi987XdG/7z8CF/Btgp5Q4u9FMq/xllGJS/YqIH4yXh0cFEVABh/9pkDAADIICNzAAAAGSTMAQAAZJAwBwAAkEHCHAAAQAYJcwAAABkkzAEAAGSQMAcAAJBBwhwAAEAGCXMAAAAZJMwBAABkUNHDD27sS8sA005lVXXMrV8QldXVUVRUlLYCl1tfX190tLXFiaYj0dHelrYCcCGEOWBamjWnNlZcd0MsvGJp2gJMVY0H9sWut9+MUyeb0xYAxsI0S2DaWbz0qlh/zz8T5CAjkms1uWaTaxeAsRPmgGll/uKGuPGW29IakCXJtZtcwwCMjTAHTCvXrl2XloAscg0DjJ0wB0wbS1esjKrqmrQGZFFyDSfXMgDnJ8wB08aChiVpCcgy1zLA2AhzwLQxZ+7ctARkmWsZYGyEOWDaKC0rT0tAlrmWAcZGmAMAAMggYQ4AACCDhDkAAIAMEuYAAAAySJgDAADIIGEOAAAgg4Q5AACADBLmAAAAMkiYAwAAyCBhDgAAIIOEOQAAgAwS5gAAADJImAMAAMggYQ4AACCDhDkAAIAMEuYAAAAySJgDAADIIGEOAAAgg4Q5YNro7upMS0CWuZYBxkaYA6aNkydOpCUgy1zLAGMjzAHTxpGD+9MSkGWuZYCxEeaAaWPfrp3R3taa1oAsSq7h5FoG4PyEOWBaeWfrlrQEZJFrGGDshDlgWjl66GC88YvNaQ3IkuTaTa5hAMZGmAOmnUP73o9Nz/+PaDywL20BprLkWk2u2eTaBWDsih5+cGNfWgaYdiqrqmNu/YKorK6OoqKitBW43Pr6+qKjrS1ONB2Jjva2tBWACyHMAQAAZJBplgAAABkkzAEAAGSQMAcAAJBBwhwAAEAGCXMAAAAZJMwBAABkkDAHAACQQcIcAABABglzAAAAGSTMAQAAZJAwBwAAkEHCHAAAQAYJcwAAABkkzAEAAGSQMAcAAJBBwhwAAEAGCXMAAAAZJMwBAABkkDAHAACQQcIcAABABglzADBmD8WXn/xmPJY7/vgrG9I2ALg8ih5+cGNfWgaA0d37SPzx566PqrRa6PCLX4hHn0gr014S5u6MRblS+/bvxO9/7bn+ZgC4DIzMAXBJFt1llAoALgdhDoALkozEPfJQcrwUh9O2qqvWxt1pGQCYHKZZAnB+BdMsC6dVbnz0m7G+ISkdjE0PfTVisD5k+HTEu7/y9fj06uq0lmiLHX/9O/H4s2d77PsR9z8Qq3LNQ6+1Ib70jf62OPhSPPLlJ3OFoSmQQ++x4HkD2t6K737xsXghrQ6eQ6590/vLYn3y9Qdec9j00sMvvhRxl2mWAEwNRuYAuEgPxfKB4NbWHIdzwamuNq0XqFr9wOA0zJFhbcjZH3sujjX3lwZHAO9dG0sHntpwTWxMPt47P+bkGw7G7iTIJUHsyWFBLlF9fXz6yT/s/5xCufZ8kBswyn2Ci9IgBwBTgTAHwAVJ7pFLVnN8LB0FSxx+JRnpei4e/+LAFMz+Y9PB/scHQtiiuWlYSkbHBp/XPyp3rse+vSN9oera/q+5tDYXstqivS2p1EbdvQNtOQffjW/nPmy8ZyCIJaOG6ev99VvRnm9riA+Mcp/f4BTSLz9Z8PnJ6GDa/mL6PgBgChDmALgE/UFpYNplMrrWH/T6j+FTLodCWTI6ljzn6/GlJIjlnOuxeOLd9P68/uC2cVXyws2x7/0kzVXH0nUb4u4F/cOC7SeS1ykYJUzDXd6zW2NfPgDmAubcYW9uYEQvr/DzX80HyrzB9wEAl58wB8AFGVoAJTm+OhSUPv+HQ9Mkk3vOco8PjMwNeuKrBaNjiepY9bl0NcxzPZYLWifzISwJbo/0T+/MhbTHj/TPv0yCWf/IXlvs25Lcx9YQcwpmTI5JfqrogIv4fACYZMIcAONiYGRsaEGS0e+hi2cfi9/PB8HvxI7ho2Rnfey52J4fhUumbC7L3xuXH4EbGCmrvSaWJ1+rbU9sz4+iPRm7B4LkwD11iYJ77fpH8M5mIDzmFHz+3V+52T1zAEwZwhwA46vhznSa5cjFR5KVI4emYQ49fnjHk+d8LPHClj39o3bV1fn75fpH4NLQVd0Qi5LnNx8dXKXy288P3R+3fuB1Bxc0ORivn3Mlyufi8VcG0+Dg559t8RYAuByEOQDGxQtf+50zplUmS/ePmGY5isKtDoY747Fnj8bJtJjcL3csPwI3NGKXGAh+eflRvqG98Ablp4AWTA89m2Ta5xkLniQLoYzyegBwmdhnDgAAIIOMzAEAAGSQMAcAAJBBwhwAAEAGCXMAAAAZJMwBAABkkDAHAACQQcIcAABABglzAAAAGSTMAQAAZJAwBwAAkEFFDz+4sS8tA0w7lVXVMbd+QVRWV0dRUVHaClxufX190dHWFieajkRHe1vaCsCFEOaAaWnWnNpYcd0NsfCKpWkLMFU1HtgXu95+M06dbE5bABgL0yyBaWfx0qti/T3/TJCDjEiu1eSaTa5dAMZOmAOmlfmLG+LGW25La0CWJNducg0DMDbCHDCtXLt2XVoCssg1DDB2whwwbSxdsTKqqmvSGpBFyTWcXMsAnJ8wB0wbCxqWpCUgy1zLAGMjzAHTxpy5c9MSkGWuZYCxEeaAaaO0rDwtAVnmWgYYG2EOAAAgg4Q5AACADBLmAAAAMkiYAwAAyCBhDgAAIIOEOQAAgAwS5gAAADJImAMAAMggYQ4AACCDhDkAAIAMEuYAAAAySJgDAADIIGEOAAAgg4Q5AACADBLmAAAAMkiYAwAAyCBhDgAAIIOEOQAAgAwS5oBpo7urMy0BWeZaBhgbYQ6YNk6eOJGWgCxzLQOMjTAHTBtHDu5PS0CWuZYBxkaYA6aNfbt2Rntba1oDsii5hpNrGYDzE+aAaeWdrVvSEpBFrmGAsRPmgGnl6KGD8cYvNqc1IEuSaze5hgEYG2EOmHYO7Xs/Nj3/P6LxwL60BZjKkms1uWaTaxeAsSt6+MGNfWkZYNqprKqOufULorK6OoqKitJW4HLr6+uLjra2ONF0JDra29JWAC6EMAcAAJBBplkCAABkkDAHAACQQcIcAABABglzAAAAGSTMAQAAZJAwBwAAkEHCHAAAQAYJcwAAABkkzAEAAGSQMAcAAJBBwhwAAEAGCXMAAAAZJMwBAABkkDAHAACQQcIcAABABglzAAAAGSTMAQAAZJAwBwAAkEHCHAAAQAYJcwAAABkkzAEAAGSQMAcAAJBBwhwAAEAGCXMAAAAZJMwBAABkUNHDD27sS8sATHP1CxfH7Llzo6jY3/Iuh77e3mg5cSKaGg+lLQBw8YQ5gBlgVu3cuP6mW6J2Xl3awuXUfPxYvPXaL+JU84m0BQAunD/NAkxz5RWV8cH1dwpyU0jyvUi+J8n3BgAuljAHMM2tuHZ1VFRVpTWmiuR7knxvAOBiCXMA09yChiVpianG9waASyHMAUxzRuWmLt8bAC6FMAcAAJBBVrMEmOY+/pkH0tIYnN4Vm599JVrSat6i9fGR25dFeVo9r86TceD97bHv/cZobe2I3nxjSZTW1EftVStixbJlUVuRbzyn9iM74733dsWxYy3R2dnT31heEzV1S2Lx1Stj2fyaKC7qbx50ZEv86OWdaWVsatbeF7dfXdNfOe/nl0RxdWXuPayIZddfG4trStL2Qo2x9emf5P7tt/COB2LtgrQyih89/Z20BAAXxsgcAINa9+86M8glDu+KQ6fT8jl1RfN7L8c//sM/xPY390TLYJBL9ER3a2M0vbkpXnn27+NnbzVFd/rICO0HY/tP/j5efnlLHDp0YijIJTpbo/XQO/Huy8/E8z98Ofa1pu2Tpid621qjZd+2eOOHT8fLb5zjPABggglzAKSSEbWmtFyoMfbtPZmWz6YrGrc+F69s3R+dQwnuLHqi9e2fxKvvjZLEWnfG5h+/FAdOFAS4s2nbH2//dEs0dqX1SdcT7TvPch4AMAlMswSY5sY8zfLUO/Hyj16L9nylIRZf3RqH3ktD3Jyb4rZ7ro3Z/bUReo9siX98eefQKFX1klj2wTWxYv6cKE2mQvZ2RPOBt2P7a+9E6+CTFsaqez8aywanXLbG7hefiXePp9UoiZprbo3Vq5ZEbUX/dMbuU42xa/srsefAUIAqveZj8dE19f2VM6ZJroy1n1mX+yoX4Dyf39vVGi2H34k3tuyM9sHQOieWffyTsWpWWjXNEoBJYmQOgLzm/bmAkpZj0bJYtWJFDK61ePLN2DcYsoY7Ge9uKwhyVbkQdPcdsWpBGuQSxZVRu/SmuP0ja6KmYmHU33Br3PzxO2Npwb1zvQe3nRHkZq/9ZNy+Jrm/bui+tNJZuQD4Kxti9ZWVUbX42rhm/Ya47YY0yE2C4rKa3HmsizvuvDZK07b8iObu0UY0AWBiCXMA5DTFgYLpgrVLGqJ81rJYOjii1BWN+88SWE7uj0MFszDn3bAmFpalleHmrI7b7/1ofHDVipg3q6Tgl1BPHDqwJy3n1Fwb161IFyUZoSyuuPnX4471N8XyxXOj6nL8Jpt3Q1yzKC3ndO/dF2fNugAwQYQ5AHJZbl80dqblZIrloiSNVcbipUOTDLt37YxDo6z20dncFIOfGvVRV3+2JHcuJ6J5YF5iYtHCqB2+UuWUUhbzFhaMCHY2RfPgsCYATA5hDoBoOrhraJrkomWxMN2HoHzxiqjtL0b07o9DR0YuTNLVWZhi5kX1xeyD3dcZ3UOJMGpqzjYqdyF2xtanv5O/J+2sx4s742KXL6mpmZOWUu5AB2CSCXMAM11fUzTuHVoSMj/FMi1H+ZK4Ymlajp5oen9/wShcv9bWE2npErS3XnSoumyKR9tjDgAmjzAHMNMd3RMHRkyxHFASi69YlpZzRtlzrqJiHEbRyquiMi1mRu8Ytk8AgAkkzAHMaD1xaO+utJw4GG//4MypiM9vLliYJBrjwP4zx9DKywtj2PFou5h7x0rLoqzgN1Jr63iM0yVbCzyQ35rhrMddK+Nio2hr67C996b0PX4ATEfCHMBM1n0oDu2/sBGm1vf3R0taTlTVF0zLjKZoPNKRli9Efcy7Ii0m9h2Mpil9D1pPNB8vWN2zvD5qL+ZeQQC4BMIcwAzW27gvmgY3vx6j4XvOzVkSiwvWAml5a3s0Dt2Cd6bWnbH52X+IV7btjEPNHdE7GNiGTefsfDfe3XW20bmuaHz9H+InP90UO/Y0RcsoK2xOuNZ3Y8++tJxTeuXSmJeWAWCyCHMAM1ZXHNhTMIVywa3xkdGmIibHr94R9YO/MYbvOTcnVlxXEMTad8bWF16O3ccLwlpvRzTvey1+9sKWaDl9Mprf3RJvvPCTeLdgiK948epYNhgKe6Jl6z/Ez7YdPCOsdZ9qjB0/fy627joZ3Uf3xJ4tP47Nr+0fWolzovXl3teRd+LVn75WsGBLfVx19eRtXA4AA4oefnCjxZQBprEkjI3q9K7Y/Owrg1Mma9beF7dffbY7yHri0KtPxxt70ymZxStj7a+ti4WD94nlAt7WXMgq2Hj8fEqv/mh8ZO3CM/+qmIzcJYFvrOmsuD6u+fjHYnl1Wj+yJX708s60Mkbz1sXtA/fOXfDnl8TstZ+M287ot8bY+vRPcv/2W3jHA7F2cPP1kZL7EgHgYhiZA5ihOg/vKbj3rT4WLz7XUiAlsfjKFWk5p3dXHDhUeK9dWSxcuyFuvXFYOBtVSdRc99H40JpRnluzMm772B2xsHoMy/5XL4lV9xQEuUnXfx43nzUAA8DEEuYAZqTWOLB7YOwoZ96yWHC+UDR/SSwc/K0x2p5zZVG78qPx0Xs3xOoblsXs6jO3OCitWRj1N9waN2/4jbj9+oVRfrbVH6uWxNpPfCZuv2NdLmDOjdLStD1RXhM1i6+Na9Z/Mj7yiTti2ay0fdKURHH13Ki9Zl2szZ9HfRS+PQCYTKZZAkxzZ51myZRgmiUAF8vIHAAAQAYJcwDT3On2i9nFm8ngewPApRDmAKa5Iwf3pyWmGt8bAC6FMAcwze16Z7sRoCko+Z4k3xsAuFjCHMA013m6I3656aVoPn4sbeFyS74Xyfck+d4AwMWymiXADFK/cHHMnjs3ior9Le9y6OvtjZYTJ6Kp8VDaAgAXT5gDAADIIH+aBQAAyCBhDgAAIIOEOQAAgAwS5gAAADJImAMAAMggYQ4AACCDhDkAAIAMEuYAAAAySJgDAADIIGEOAAAgg4Q5AACADBLmAAAAMkiYAwAAyCBhDgAAIIOEOQAAgAwS5gAAADJImAMAAMggYQ4AACCDhDkAAIAMEuYAAAAySJgDAADIIGEOAAAgg4Q5AACADBLmAAAAMkiYAwAAyCBhDgAAIIOEOQAAgAwS5gAAADKo6OEHN/alZQAuk/qFi2P23LlRVOxvbFy6vt7eaDlxIpoaD6UtAExHwhzAZTSrdm5cf9MtUTuvLm2B8dN8/Fi89dov4lTzibQFgOnEn4ABLpPyisr44Po7BTkmTPKzlfyMJT9rAEw/whzAZbLi2tVRUVWV1mBiJD9jyc8aANOPMAdwmSxoWJKWYGL5WQOYnoQ5gMvEqByTxc8awPQkzAEAAGSQ1SwBLpOPf+aBtDS6xte/E1t3pZWzKa2M8lnzom7Fmlh15dwoL0rb81pj94vPxLvH0+qYrIy1n1kXC9PaGfq6ouXw+7Hn/V1x7FhLdHb2pA+URGnN7KhZvCKWLrsqFs8pS9sLNcbWp3+S+7ffwjseiLUL0sqAvtZo3LUz9uzdHy0nW6O3t7+5uKImahbkXnvVyrhilNdufe/H8bOtTWltjOati9vvWhkxls8tLovyqnkx+6pr47qVDVF1Rh+P4vSu2PzsK9GSVvMWrY+P3L4sytPqkDP7Zazy/Rdb4kcv70xbzvF9S/3o6e+kJQCmCyNzAFnW3RGdJw7GoS3PxT/+dGe0TtCf57pP7IxXf/i92LxpSxw6dKIgyCV6orv1RDS/uyXeeP578Y8/3xUtF/o+WvfEq889E1u3vhPNJ4aCXKL3dGu07NsW25PX3toY3Wn7pOntis7Wxmh686V4+bkt0diVtp9F6/7c+aflQYd3xaHTaRkAxokwBzBdNG2J1949mVbGT/eRLfFP/7gljrcVBriz6YnOA6/E5iRYpi3n1dcU23+6KY63p/Wzyr32ey/Fq7vG/Mrjr31nLnDuj4KsOczJOPD+aCN9jbFv7/h/bwCY2UyzBLhMLmia5YqPxsc/MHISXefxd+L1n70WzZ1pQ/m1cfOnbop5+cqZ0yxr1t4Xt19d018Zq6798ctnX46mgfRSXBPzVt8aq66qj9llJfmm3u7WaDm0M7a/9k60Dg6blcUVd94fq+vT6rmmWebC4tB0wcqoX/eRuG7p3KhK/9zYfWpPbHt5UzQNhL0zznF0Z0y9TKdUjnbmY3leb+vBeONnL0XjqbQhGuK6T90ZS0fOmYw49U68/KPXov+tNsTiq1vj0HtpiJtzU9x2z7Uxu792DmOYkpo4o99MswSYiYzMAWRY+bxrY/W1c9NaTmdvnGcW4AVpevvnBUGuPq752H1x88qFg0EuUVxaE7VLb4rb714XsyvmRO016+LGu++N68a4F3prS8FNfbXXxaplQ0EuUTprWXzwlmujNK1HZ1M0t6XlSVBc0xBr16xIa4nO6D7LXM/m/TvTIJezaFmsWrEiBteRPPlm7Lug+xcB4NyEOYCM6+4ez/hWoK8xDuwaeu3ZN90Ry881sFezMm6795Nx65qVsbi2MorPt1BIqqqy4EWbt8VrW/dE8+lhUzrrb4qPfuaB/Gjmxz/zsVhenbZPkt6esUwxbYoD7w1NAa1d0hDluSC6dHBUrSsa91/gQi0AcA7CHEBW9fVE+/Ht8fY7BfeQLZgbBeN0l+bEwTg2eHNYLpRcUZmWx1fxwhWxcHDKYu6c3tsUrzz79/GjHzwTm3+xLXbva4qWSV/1JJXr42Sa5+vb9qQNOeX1MXu0bdua9kXjwHTXZIrlomTlzcpYvHRo8mP3rp1x6HKdCwDTjnvmAC6Tcdma4Ay54PDh++LG+QNTIC98a4Iz7s86/Er86GfpG6hZE7d+YnXU9tcuwrnvA+tuei02v/xOtJ91ZZGSKK5fFtesuSmWzR1t64MzXdQ9c2NSErM/8Mm4bcXIV2va9lT88t10JLNwK4LOPfHKDzZFc/6Bkqi/7TPxwYahaaojuWcOgLExMgcwHRTXxMJf2VAQ5C5da2vB6ovlZUP3rA1KwuJ38iFh1OP1se+eVlp/U9zxyQ35hVWKR/3N1BO9Tbtix0++F5sLpjJOrlyQu/FjcfMoQS5ZkbNx79CU1PwUy7Qc5UviiqVpOXceTe/vj8EBPAC4BMIcQJaVNcSy2zfER37tvlg7ztMga2rmpKWc5pboSIsTpnxuLPvgx+KeX/uNuOPuj8aqG1ZE7YhNwnuiZeuPY/ukLiQyJxav+1jc/uu/EbetnDtKqM05uicOjJhiOaAkFl+xLC3n2HMOgHEizAFkQbI1QbL4x6dzgeKWFVE+8H/vroOxZ/v7Y7qnLNmaoH8BkbMfZ0znq6oZGl3qPR4tk7WCZFFJVNUujGWrbo1b77k/d86/HrfesrJghcuOOLBv7KN+Y5ZMx0z6IdfHd9x1U8weTG0n49Bbb59jH7yeOLS3cD7swXj7B2eOUj6/ueCeu2iMA/sv4155AEwbwhxAluSCzuylt8aHbl85NELU/E78ctPOaB3vO6BnL4z5g2muKQ6M2PS6JpbfNSwMFq7gPxbd++OXg6Hn72PrkbS9UFFl1C5dFzdeWzC98fjJsW9KfqGSMDnv2rgt2Wph4Ldk+/54+6dbonG0hUO7D8Wh/WNZ7XJI6/v7oyUtA8DFEuYAMqh0wZpYvaJgWmXTlnhlW2Ocdf2Qi1FUH1dcPTTVsv2dV2LHiXNvg9B7YZkmdyJzY+7g7t890fjunrPcT9YTp08XPFJeHudfBuUS1ayMG28c3PU81wE7Y2sSmtPqgN7GfUN78Y2VPecAGAfCHEAmlcXCtXfEFQVL5He/tyneHueAUHv1B4a2Dehtij0/eTY2v3XmPnC93a3RfCgXdF56Kt4onE04JjVxxfKCNRgPvxKbfr4zjrf1DAbT3q6TcWjrj2NrwZ53VfPnDk0BnUA1V98R1y0qWFSm6fXYvrfw7sGuOLCn4KQX3BofKRipPOP41TuifvC3rj3nALh0JetvWvMf0zIAk+jq629MS6NrPfxmNJ5IK/OWx9WLhq2iWFQd9bWdsW/vsTT4dEfL8eKoX74gKvMbdnfFifd3xPE0e3Q17ohdb7953qO1/sYY/FIls6O+rjsa9zVFd34aZ3d0Nu2PAzu3Dz5/944dcWD/oWg9Y1+Byph3zXXRMGcgcrVG49vvD45q1Vw59DVK5tRFz8F3cwExqfVFT8uhOPje9tg9+PrvxpGBk0hUrYzVH1weNedYuLPr+K7Y15je5FbVEEuvqhs1/J3/eaUxp64sju4+FJ358++L04c7ovLqpTE7+fqn98Rbrx0YHE2sueaDcdW8s8TM4twJt74TR072z4ftbS6JWdc2RM2IzdXP3ldnaDsUu3Lf+351sej63GultdEkfQnA9GJkDiDDiud/INZcXTDd8uS22D7OS/cn2wbcfs+tMa96LNselET5otVx44Zfj5uXnitaFCiaE6s+fGcsHsvrVy2J6z68LhZO+BzLAtUr48Y1BdMte/fEjm0Hc7E2ovPwnoJ73+pj8eJznXNJLL6y4KbC3l1x4NCFzksFgCHCHECmlUT99etjYcF0y9Y3N8XucV55snjWirh5Q7LK462xbOnCKK8oCF7FZVE+tyEWr70zbr33N+Ijt6/JBbP0sbEqb4gbP/Hrcdsta6J+fk2UFq7/X1oZ5fOXxbJbNsRHNtwRY82I46lm+fq4pn7onLv3vBJvHz0ZB3YXrKo5b1ksON95z18SCwd/89pzDoBLU/TwgxvHe/0zAMYguY8KJkuyYigA04uROQAAgAwS5gAuk9PtZ92FGsaVnzWA6UmYA7hMjhzcn5ZgYvlZA5iehDmAy2TXO9uNmDDhkp+x5GcNgOlHmAO4TDpPd8QvN70UzccH9gqD8ZX8bCU/Y8nPGgDTj9UsAaaA+oWLY/bcuVFU7G9sXLq+3t5oOXEimhoPpS0ATEfCHAAAQAb5EzAAAEAGCXMAAAAZJMwBAABkkDAHAACQQcIcAABABglzAAAAGSTMAQAAZJAwBwAAkEHCHAAAQAYJcwAAABkkzAEAAGSQMAcAAJBBwhwAAEAGCXMAAAAZJMwBAABkkDAHAACQQcIcAABABglzAAAAGSTMAQAAZJAwBwAAkEHCHAAAQAYJcwAAABkkzAEAAGSQMAcAAJBBwhwAAEAGCXMAAAAZJMwBAABkkDAHAACQQcIcAABABglzAAAAGSTMAQAAZJAwBwAAkEHCHAAAQAYJcwAAABkkzAEAAGSQMAcAAJBBwhwAAEAGCXMAAAAZJMwBAABkkDAHAACQQcIcAABABglzAAAAGSTMAQAAZJAwBwAAkEHCHAAAQAYJcwAAABkkzAEAAGSQMAcAAJBBwhwAAEAGCXMAAAAZJMwBAABkkDAHAACQQcIcAABABglzAAAAGSTMAQAAZJAwBwAAkEHCHAAAQOZE/P9SscGjSRCUJQAAAABJRU5ErkJggg==;" parent="1" vertex="1">
          <mxGeometry x="260" y="340" width="883" height="515" as="geometry" />
        </mxCell>
        <mxCell id="PhmaQYEjILuzU4zKonOK-2" value="&lt;font color=&quot;#6e5d57&quot;&gt;&lt;b style=&quot;font-size: 15px;&quot;&gt;LOGIN&lt;/b&gt;&lt;br&gt;&lt;div style=&quot;&quot;&gt;&lt;span style=&quot;font-size: 15px;&quot;&gt;&lt;b&gt;This is the ZiFiorino login screen. Enter your credentials and press the ACCEDI button to access the app. Pressing the REGISTRATI button will open a window in which you can register for the service.&lt;/b&gt;&lt;/span&gt;&lt;br&gt;&lt;/div&gt;&lt;/font&gt;" style="rounded=1;whiteSpace=wrap;html=1;strokeColor=#6e5d57;strokeWidth=5;fillColor=default;gradientColor=none;spacingTop=0;spacingLeft=0;spacingBottom=0;spacingRight=0;spacing=20;align=center;" parent="1" vertex="1">
          <mxGeometry x="270" y="370" width="300" height="160" as="geometry" />
        </mxCell>
      </root>
    </mxGraphModel>
  </diagram>
</mxfile>
